<svg width="940" height="1015" viewBox="0 0 940 1015" fill="none" xmlns="http://www.w3.org/2000/svg">
<mask id="mask0_3845_38742" style="mask-type:alpha" maskUnits="userSpaceOnUse" x="117" y="-10" width="1566" height="977">
<path d="M123.375 803.697C55.2367 466.713 603.404 71.526 940.412 3.38328C1277.42 -64.7594 1605.86 153.18 1673.99 490.164C1742.13 827.148 1389.85 724.241 1052.84 792.383C715.836 860.526 191.512 1140.68 123.375 803.697Z" fill="#212121"/>
</mask>
<g mask="url(#mask0_3845_38742)">
<path d="M123.375 803.697C55.2376 466.713 603.405 71.5261 940.413 3.38338C1277.42 -64.7593 1605.86 153.18 1673.99 490.164C1742.13 827.148 1382.27 662.895 1045.26 731.037C708.253 799.18 191.513 1140.68 123.375 803.697Z" fill="#F4F4F4"/>
<path d="M119.412 784.094C51.2743 447.11 599.442 51.9227 936.45 -16.22C1273.46 -84.3627 1601.89 133.576 1670.03 470.56C1738.17 807.544 1371.62 635.461 1034.61 703.603C697.606 771.746 187.55 1121.08 119.412 784.094Z" fill="#F4F4F4"/>
</g>
</svg>
