<svg width="218" height="22" viewBox="0 0 218 22" fill="none" xmlns="http://www.w3.org/2000/svg">
<path d="M216 2L204.245 13.7561C197.917 20.0837 187.768 20.4232 181.032 14.5325L174.203 8.56045C167.661 2.83938 157.858 2.97359 151.475 8.8716L145.392 14.4922C138.301 21.0449 127.182 20.3832 120.918 13.0357L119.328 11.1697C112.371 3.0095 99.6884 3.24985 93.0456 11.6678L92.5537 12.2912C85.7981 20.852 72.8433 20.9281 65.9877 12.4472L65.5189 11.8672C58.8983 3.67712 46.4998 3.41566 39.5398 11.3194L38.1426 12.9061C31.6577 20.2703 20.3022 20.6305 13.3636 13.6921L1.67114 2" stroke="black" stroke-width="4"/>
</svg>
