<svg width="30" height="31" viewBox="0 0 30 31" fill="none" xmlns="http://www.w3.org/2000/svg">
<path fill-rule="evenodd" clip-rule="evenodd" d="M11.8094 3.13195C12.4269 3.44069 12.6772 4.19153 12.3685 4.809L10.1324 9.28114C9.82365 9.89861 9.07281 10.1489 8.45534 9.84016C7.83786 9.53142 7.58758 8.78058 7.89632 8.16311L10.1324 3.69097C10.4411 3.0735 11.192 2.82322 11.8094 3.13195Z" fill="white"/>
<path fill-rule="evenodd" clip-rule="evenodd" d="M18.1923 3.13196C18.8097 2.82323 19.5606 3.07351 19.8693 3.69098L22.1054 8.16311C22.4141 8.78059 22.1638 9.53143 21.5464 9.84017C20.9289 10.1489 20.178 9.89862 19.8693 9.28115L17.6332 4.80901C17.3245 4.19154 17.5748 3.4407 18.1923 3.13196Z" fill="white"/>
<path fill-rule="evenodd" clip-rule="evenodd" d="M3.12541 13.7071C2.6951 10.6949 5.03241 8 8.07516 8H21.9276C24.9703 8 27.3076 10.6949 26.8773 13.7071L25.6021 22.6339C25.1622 25.7129 22.5252 28 19.4149 28H10.5878C7.47753 28 4.84053 25.7129 4.40067 22.6339L3.12541 13.7071ZM8.07516 10.5C6.55378 10.5 5.38513 11.8475 5.60028 13.3535L6.87554 22.2803C7.13946 24.1278 8.72166 25.5 10.5878 25.5H19.4149C21.2811 25.5 22.8633 24.1278 23.1272 22.2803L24.4025 13.3536C24.6176 11.8475 23.449 10.5 21.9276 10.5H8.07516Z" fill="white"/>
</svg>
