<svg width="466" height="476" viewBox="0 0 466 476" fill="none" xmlns="http://www.w3.org/2000/svg">
<path d="M666.885 160.417L160.344 667.19L145.767 652.607L652.308 145.834L666.885 160.417Z" fill="#84929E"/>
<path d="M608.578 102.084L102.037 608.857L87.4602 594.273L594.001 87.5003L608.578 102.084Z" fill="#84929E"/>
<path d="M550.271 43.7502L43.7302 550.523L29.1535 535.94L535.694 29.1668L550.271 43.7502Z" fill="#84929E"/>
<path d="M637.731 131.251L131.19 638.023L116.614 623.44L623.155 116.667L637.731 131.251Z" fill="#84929E"/>
<path d="M579.424 72.917L72.8836 579.69L58.3069 565.106L564.848 58.3336L579.424 72.917Z" fill="#84929E"/>
<path d="M521.118 14.5834L14.5768 521.356L3.88834e-05 506.773L506.541 -1.35269e-05L521.118 14.5834Z" fill="#84929E"/>
<path d="M816 359.227L309.459 866L294.882 851.417L801.423 344.644L816 359.227Z" fill="#84929E"/>
<path d="M757.693 300.894L251.152 807.666L236.576 793.083L743.116 286.31L757.693 300.894Z" fill="#84929E"/>
<path d="M699.386 242.56L192.845 749.333L178.269 734.75L684.81 227.977L699.386 242.56Z" fill="#84929E"/>
<path d="M786.847 330.06L280.306 836.833L265.729 822.25L772.27 315.477L786.847 330.06Z" fill="#84929E"/>
<path d="M728.54 271.727L221.999 778.5L207.422 763.916L713.963 257.143L728.54 271.727Z" fill="#84929E"/>
<path d="M670.233 213.393L163.692 720.166L149.115 705.583L655.656 198.81L670.233 213.393Z" fill="#84929E"/>
</svg>
