<svg width="160" height="189" viewBox="0 0 160 189" fill="none" xmlns="http://www.w3.org/2000/svg">
<path opacity="0.1" fill-rule="evenodd" clip-rule="evenodd" d="M41.3849 0.92025C-2.32249 7.9284 -36.9189 42.7155 -44.0344 86.8103C-45.4393 95.5129 -45.29 112.131 -43.7248 121.337C-39.2123 147.879 -25.493 170.133 -3.38315 186.775C27.4316 209.969 68.9023 213.494 103.967 195.9C127.243 184.222 146.894 161.432 155.073 136.63C158.964 124.832 159.963 118.252 159.999 104.182C160.036 89.4186 159.086 82.8732 155.148 70.7363C143.452 34.6952 112.357 7.63801 75.3157 1.2703C66.3651 -0.268206 49.8583 -0.438641 41.3849 0.92025ZM66.3325 15.3581C88.4926 16.7425 112.054 29.7775 126.761 48.7902C140.034 65.949 146.053 85.1682 145.136 107.459C144.921 112.687 144.505 117.997 144.213 119.258L143.681 121.553L130.18 121.73L116.679 121.907V129.432V136.957H125.552H134.426L133.969 139.416C131.937 150.339 124.384 162.462 115.295 169.387C110.204 173.267 102.081 177.199 96.0742 178.692C89.8713 180.234 77.3803 180.217 71.7361 178.658C56.5494 174.464 43.6933 163.392 37.8626 149.486C36.2433 145.623 36.5536 144.858 39.7551 144.829C40.6515 144.821 43.7317 144.248 46.6001 143.557C74.3457 136.862 94.5279 113.146 97.4738 83.7759C97.876 79.7641 98.0168 79.4547 99.3089 79.7497C102.787 80.5435 112.844 86.023 115.909 88.7945L119.287 91.8479V81.9267V72.0047L113.257 69.1008C109.941 67.5039 104.764 65.4935 101.754 64.6334L96.2815 63.0687L94.1589 57.0917C87.677 38.8374 76.2851 25.9453 59.3656 17.7179C54.0885 15.1522 53.6934 14.285 58.0084 14.7399C59.2633 14.8723 63.0091 15.1503 66.3325 15.3581ZM44.6444 28.418C54.2593 31.0794 64.7099 38.0587 71.1892 46.1458C74.0849 49.7603 79.5211 59.7085 79.5211 61.3932C79.5211 61.8081 78.128 62.3352 76.4246 62.5639C54.5135 65.5066 34.9473 79.3282 25.1675 98.7715C21.7705 105.525 18.3206 118.928 18.2652 125.588C18.2378 128.823 17.9731 128.819 10.666 125.478C-8.20526 116.847 -19.5418 98.9406 -19.6044 77.6625C-19.6311 68.6065 -18.1461 62.4512 -13.9779 54.3359C-7.13549 41.0138 7.42081 30.0594 21.6538 27.5219C26.6858 26.6245 40.0459 27.1449 44.6444 28.418ZM81.9357 82.7133C81.4944 88.8981 79.718 95.1832 76.5771 101.673C69.2315 116.849 53.8694 127.802 37.5745 129.481L33.4675 129.904L33.7355 125.728C34.3137 116.71 37.669 107.096 43.1052 98.8777C48.1008 91.3261 58.097 83.7909 67.9257 80.1672C70.1226 79.357 77.7577 77.8106 81.7369 77.3701C82.0687 77.3334 82.1548 79.6487 81.9357 82.7133ZM-20.1931 120.784C-11.6936 131.358 1.71472 140.052 14.1445 143.048C19.73 144.394 20.1798 144.625 20.5618 146.344C21.4491 150.33 25.4557 159.531 28.309 164.135C31.9786 170.055 39.0322 177.756 44.8602 182.205C47.2513 184.03 52.1412 187.013 55.7267 188.833L62.2457 192.144L54.097 191.776C49.6151 191.573 43.748 190.979 41.0589 190.456C14.4125 185.267 -9.04295 167.364 -21.1644 142.962C-26.1358 132.954 -30.0114 117.924 -29.9814 108.77L-29.969 105.165L-27.2134 110.322C-25.6971 113.158 -22.5386 117.866 -20.1931 120.784Z" fill="#212121"/>
</svg>
